<?xml version="1.0" encoding="UTF-8" standalone="no"?>
<svg width="20px" height="19px" viewBox="0 0 20 19" version="1.1" xmlns="http://www.w3.org/2000/svg" xmlns:xlink="http://www.w3.org/1999/xlink">
    <!-- Generator: Sketch 3.8.3 (29802) - http://www.bohemiancoding.com/sketch -->
    <title>Shape</title>
    <desc>Created with Sketch.</desc>
    <defs></defs>
    <g id="Page-1" stroke="none" stroke-width="1" fill="none" fill-rule="evenodd">
        <g id="333" transform="translate(-47.000000, -538.000000)" stroke="#222C53" stroke-width="0.2" fill="#222C53">
            <path d="M64.663004,538.114433 L56.8606958,538.105516 L49.3339852,538.114433 C48.598788,538.114433 48,538.713221 48,539.448418 L48,539.919713 C48,540.361364 48.2134145,540.809037 48.5573325,541.08475 L54.5247163,545.893003 L54.5247163,555.45323 C54.5247163,556.161794 55.0672268,556.716 55.7579578,556.716 C56.0810324,556.716 56.3922956,556.588507 56.63547,556.360271 L58.9921772,554.136962 C59.2886184,553.855343 59.4723888,553.431409 59.4723888,553.025308 L59.4723888,545.91072 L65.418929,541.336609 C65.7775533,541.060896 66,540.610329 66,540.159761 L66,539.448302 C65.9971051,538.713105 65.401212,538.114317 64.663004,538.114317 L64.663004,538.114433 Z M64.8112246,540.159877 C64.8112246,540.242904 64.7578421,540.349553 64.6926482,540.39703 L58.4052006,545.237937 C58.3400067,545.288309 58.2866241,545.395074 58.2866241,545.47509 L58.2866241,553.025423 C58.2866241,553.105439 58.2391472,553.21811 58.179859,553.274388 L55.8202568,555.500707 L55.7609686,555.533246 C55.7313245,555.533246 55.7136075,555.506497 55.7136075,555.456125 L55.7136075,545.477985 C55.7136075,545.394958 55.6632356,545.288309 55.5979259,545.237937 L49.3044569,540.162888 C49.2421579,540.112516 49.1888912,540.002856 49.1888912,539.92284 L49.1888912,539.451429 C49.1888912,539.368402 49.2540851,539.303208 49.3371118,539.303208 L56.8608116,539.294292 L57.1572528,539.294292 L64.6631198,539.303208 C64.7461465,539.303208 64.8113404,539.371413 64.8113404,539.451429 L64.8113404,540.159993 L64.8112246,540.159877 Z" id="Shape"></path>
        </g>
    </g>
</svg>